<svg id="Layer_1" data-name="Layer 1" xmlns="http://www.w3.org/2000/svg" xmlns:xlink="http://www.w3.org/1999/xlink" viewBox="0 0 738.35 173.61"><defs><style>.cls-1{fill:url(#linear-gradient);}.cls-2{fill:url(#linear-gradient-2);}.cls-3{font-size:134px;font-family:BrushScriptMT, Brush Script MT;}.cls-4{fill:url(#linear-gradient-3);}</style><linearGradient id="linear-gradient" y1="121.56" x2="164.19" y2="121.56" gradientUnits="userSpaceOnUse"><stop offset="0.06" stop-color="#d24599"/><stop offset="0.13" stop-color="#b8489b"/><stop offset="0.2" stop-color="#a54b9d"/><stop offset="0.27" stop-color="#9a4d9e"/><stop offset="0.35" stop-color="#964d9e"/><stop offset="0.54" stop-color="#843d97"/><stop offset="0.73" stop-color="#793b96"/><stop offset="1" stop-color="#3f205a"/></linearGradient><linearGradient id="linear-gradient-2" x1="20.56" y1="86.8" x2="205.3" y2="86.8" gradientUnits="userSpaceOnUse"><stop offset="0.09" stop-color="#d24599"/><stop offset="0.14" stop-color="#b9489b"/><stop offset="0.19" stop-color="#a64b9d"/><stop offset="0.24" stop-color="#9b4c9e"/><stop offset="0.29" stop-color="#974d9e"/><stop offset="0.58" stop-color="#853e97"/><stop offset="0.78" stop-color="#793c97"/><stop offset="0.98" stop-color="#401c5a"/></linearGradient><linearGradient id="linear-gradient-3" x1="257.36" y1="145.46" x2="790.4" y2="145.46" xlink:href="#linear-gradient-2"/></defs><polygon class="cls-1" points="164.19 173.61 0 173.61 10.16 156.44 10.29 156.22 30.58 156.22 30.72 156.44 30.84 156.22 51.14 156.22 51.26 156.44 51.39 156.22 71.7 156.22 71.82 156.44 71.94 156.22 92.24 156.22 92.38 156.44 92.5 156.22 112.8 156.22 112.92 156.44 113.06 156.22 133.35 156.22 133.48 156.44 133.62 156.22 133.35 156.22 123.21 139.06 123.33 138.85 61.66 138.85 71.82 121.67 71.94 121.47 82.09 104.29 82.22 104.08 92.36 86.91 92.5 86.69 102.65 69.52 112.8 86.69 112.94 86.91 123.08 104.08 102.53 104.08 102.65 104.3 92.5 121.47 92.25 121.47 92.38 121.67 92.5 121.47 112.8 121.47 112.92 121.67 113.05 121.47 133.35 121.47 133.48 121.67 143.64 138.85 143.76 139.06 153.91 156.22 154.04 156.44 164.19 173.61"/><polygon class="cls-2" points="205.3 173.61 184.74 173.61 174.59 156.44 174.72 156.22 174.46 156.22 164.31 139.06 164.43 138.85 164.19 138.85 154.04 121.68 154.16 121.47 153.91 121.47 143.75 104.3 143.75 104.29 143.89 104.08 143.63 104.08 133.48 86.9 133.6 86.69 133.35 86.69 123.21 69.53 123.33 69.32 123.08 69.32 112.92 52.14 113.05 51.94 112.81 51.94 102.65 34.77 102.79 34.55 102.53 34.55 102.65 34.77 92.5 51.94 92.25 51.94 92.38 52.14 82.23 69.32 81.97 69.32 82.09 69.54 71.96 86.69 71.7 86.69 71.82 86.91 61.67 104.08 61.41 104.08 61.55 104.3 51.4 121.47 51.14 121.47 51.27 121.68 41.11 138.85 20.56 138.85 30.71 121.67 30.83 121.47 40.99 104.29 41.11 104.08 51.26 86.91 51.39 86.69 61.55 69.53 61.66 69.32 71.82 52.16 71.94 51.94 82.09 34.76 82.22 34.55 92.38 17.39 92.5 17.17 102.65 0 112.8 17.17 112.94 17.39 123.08 34.55 123.21 34.76 133.35 51.94 133.48 52.16 143.64 69.32 143.75 69.53 153.91 86.69 154.04 86.91 164.19 104.08 164.31 104.3 174.47 121.47 174.59 121.67 184.74 138.85 184.87 139.06 195.01 156.22 195.14 156.44 205.3 173.61"/><text class="cls-3" transform="translate(205.3 127.4) scale(0.96 1)">myCommerce</text><path class="cls-4" d="M287.22,162.73q8.71-8,15-13.9l9.82-9.32q3.56-3.4,6.28-5.76c1.81-1.57,3-2.36,3.47-2.36,1,0,1.89,1,2.78,3.11a14.21,14.21,0,0,1,1.32,5.07c0,.83-1.33,2.78-4,5.86s-4.67,5.53-6,7.36a9.64,9.64,0,0,0-2,5.76,3.74,3.74,0,0,0,1.14,2.84,3.78,3.78,0,0,0,2.71,1.08,7.75,7.75,0,0,0,4.39-2q2.55-2,8-7v4.64q-5.5,5.37-10,9.26a53.37,53.37,0,0,1-7.79,5.82,11.65,11.65,0,0,1-5.53,1.93,4.17,4.17,0,0,1-3.28-1.53,5.69,5.69,0,0,1-1.33-3.83,14.53,14.53,0,0,1,.76-4.52,43.41,43.41,0,0,1,2.34-5.43q1.57-3.14,4.16-7.55l4.74-8.08q-6.44,5.43-11.43,10.46t-8.14,8.81l-5,5.92c-2.36,2.7-4.54,4.05-6.56,4.05q-3.28,0-3.29-4.84c0-1.31.83-3.65,2.47-7s4-7.69,7-12.92a2.78,2.78,0,0,0,.38-1.64c0-.87-.42-1.31-1.26-1.31s-2.26.91-4,2.72-5.12,5.59-10.13,11.35a67.17,67.17,0,0,0-4.7,6.31,61.48,61.48,0,0,1-3.76,5.2,3.1,3.1,0,0,1-2.27,1.31c-1.52,0-2.93-1.39-4.23-4.19a22.7,22.7,0,0,1-2-9.74,17.15,17.15,0,0,1,1.3-7,60.6,60.6,0,0,1,4-7.33,64.87,64.87,0,0,1,6.92-9.06,7.92,7.92,0,0,1,5.65-2.72,5.94,5.94,0,0,1,3.09.75,2.3,2.3,0,0,1,1.26,2.06c0,.92-.77,2.42-2.3,4.52a49.88,49.88,0,0,1-5.84,6.48,25.48,25.48,0,0,0-3.6,4.67c-1.14,1.86-1.7,3.2-1.7,4,0,1.18.44,1.76,1.32,1.76.72,0,2.53-1.52,5.43-4.58s6.09-6.37,9.56-10a106.83,106.83,0,0,1,9.66-9c3-2.37,5.48-3.56,7.55-3.56a3.89,3.89,0,0,1,3.12,1.47,5.47,5.47,0,0,1,1.23,3.63q0,1.44-1.89,5.2a96.69,96.69,0,0,1-5.53,9.29Q293,154.89,287.22,162.73Z" transform="translate(-52.06 -46.98)"/><path class="cls-4" d="M358.8,156.32l-11.23,9.88q-8,7.26-10.73,7.26-2.46,0-5.18-5.85A25,25,0,0,1,329,157.37a16,16,0,0,1,1.1-6.32,46.45,46.45,0,0,1,3.82-6.7,88.48,88.48,0,0,1,7.39-9.42,54.19,54.19,0,0,1,6.24-6c1.81-1.42,3.08-2.13,3.79-2.13a4.53,4.53,0,0,1,3.32,1.83,5.76,5.76,0,0,1,1.61,3.8q0,1.25-1.74,4a57.81,57.81,0,0,1-5.49,7,126.4,126.4,0,0,1-10.45,10.11l-1.2,3.6a4.21,4.21,0,0,0-.5,1.83c0,1.18.56,1.76,1.7,1.76s3.95-1.54,8.3-4.64A105.65,105.65,0,0,0,361,143.56q3-3.08,4.93-5.43t3.53-4.41a33.24,33.24,0,0,1,2.62-3.11,3.31,3.31,0,0,1,1.87-1.12,2.35,2.35,0,0,1,2.46,1.38,9.67,9.67,0,0,1,.88,4.64,9.46,9.46,0,0,1-1.51,4.42q-1.52,2.65-5.69,9t-8.3,13.22q-4.12,6.84-8.42,15.4l3.88-3.92q3.69-3.74,7.79-7.79t6.76-6.51q2.65-2.45,6.63-5.72V158q-8.54,9.49-15.44,18t-10.67,13.61l-4.38,6q-1.71,2.28-3.07,4.28a37.37,37.37,0,0,1-2.27,3.08c-.61.72-1.1,1.08-1.48,1.08-.88,0-1.67-.91-2.37-2.72a13.75,13.75,0,0,1-1-4.81,7.48,7.48,0,0,1,.7-3.33Q343,182.56,358.8,156.32Z" transform="translate(-52.06 -46.98)"/><path class="cls-4" d="M456.84,153.51v4.25a225.24,225.24,0,0,1-19.47,20.18A82,82,0,0,1,420,190.18a36.07,36.07,0,0,1-16.35,4.28A23,23,0,0,1,392,191.65a17.77,17.77,0,0,1-7.39-8.21,30.3,30.3,0,0,1-2.49-12.79,46.32,46.32,0,0,1,1.8-12.33,68.57,68.57,0,0,1,5.21-13.15,117.14,117.14,0,0,1,8.36-13.71q4.95-7.07,11.65-14.85a135.24,135.24,0,0,1,13.7-13.91,92.59,92.59,0,0,1,12.24-9.19,54.38,54.38,0,0,1,10.2-5,24.77,24.77,0,0,1,7.79-1.64,9.09,9.09,0,0,1,5.37,1.57,10,10,0,0,1,3.41,4.58A18.65,18.65,0,0,1,463,100q0,7.4-4.86,16.45A98,98,0,0,1,446,133.94a109,109,0,0,1-13.85,13.78q-6.6,5.33-9.5,5.33a5.14,5.14,0,0,1-3.63-1.6,4.9,4.9,0,0,1-1.67-3.64q0-3.72,3.82-9a73.23,73.23,0,0,1,8.33-9.72c3-2.94,4.81-4.42,5.4-4.42.29,0,.44.13.44.4a5.73,5.73,0,0,1-.67,2,6.9,6.9,0,0,0-.66,1.77c0,.35.13.52.38.52q1.08,0,6.19-6A92.86,92.86,0,0,0,450,110.29q4.26-7.16,4.26-11.74a4.61,4.61,0,0,0-.79-2.91,2.79,2.79,0,0,0-2.36-1q-4.43,0-13.42,7.43A137.84,137.84,0,0,0,419.25,121a134.74,134.74,0,0,0-15.75,23.71q-6.31,12.24-6.31,21.53a22.72,22.72,0,0,0,1.54,9,12.23,12.23,0,0,0,4.55,5.57,13,13,0,0,0,7.23,2q9.15,0,20.76-7.4T456.84,153.51Z" transform="translate(-52.06 -46.98)"/><path class="cls-4" d="M496.86,153.64V158a33.93,33.93,0,0,1-6.69,5.24q-2.52,1.31-7.26,1-8.21,10.08-14.45,10.08A9.82,9.82,0,0,1,462,172a16.7,16.7,0,0,1-4.64-6.61,24.17,24.17,0,0,1-1.74-9.36,20.25,20.25,0,0,1,2.68-9.29,41.79,41.79,0,0,1,6.95-9.52,39.49,39.49,0,0,1,9.12-7.13,18.7,18.7,0,0,1,9-2.71,9.72,9.72,0,0,1,4.67.94,2.94,2.94,0,0,1,1.7,2.65,4.91,4.91,0,0,1-1.45,3,5.3,5.3,0,0,1,3.28,1.74c.59.81.89,2.28.89,4.41a29.13,29.13,0,0,1-1.42,7.92,40.29,40.29,0,0,1-3.89,9l1.14,1.18h1a4.43,4.43,0,0,0,2.11-.55,13.54,13.54,0,0,0,1.86-1.18C493.81,156,495,155.08,496.86,153.64Zm-13-17.21c-3.5,2.18-6.48,4.16-9,5.92a44.29,44.29,0,0,0-6.31,5.37,14.58,14.58,0,0,0-3.47,5.46c-1.05,4.89-1.58,7.52-1.58,7.92,0,2.88,1.94,4.31,5.81,4.31q2.71,0,9.09-4.84a17.72,17.72,0,0,1-1.07-5.89,23.25,23.25,0,0,1,1.64-8.4A69.61,69.61,0,0,1,483.86,136.43Z" transform="translate(-52.06 -46.98)"/><path class="cls-4" d="M525.58,162.73q8.71-8,15-13.9l9.82-9.32q3.57-3.4,6.28-5.76c1.81-1.57,3-2.36,3.47-2.36q1.46-.06,2.78,3.11a14,14,0,0,1,1.33,5.07q0,1.25-4,5.86t-6,7.36a9.71,9.71,0,0,0-2,5.76,3.74,3.74,0,0,0,1.14,2.84,3.8,3.8,0,0,0,2.71,1.08,7.72,7.72,0,0,0,4.39-2q2.56-2,8-7v4.64q-5.49,5.37-10,9.26a52.85,52.85,0,0,1-7.8,5.82,11.66,11.66,0,0,1-5.52,1.93,4.19,4.19,0,0,1-3.29-1.53,5.68,5.68,0,0,1-1.32-3.83,14.24,14.24,0,0,1,.76-4.52,41.73,41.73,0,0,1,2.33-5.43q1.57-3.14,4.17-7.55t4.73-8.08q-6.44,5.43-11.42,10.46T533,163.49c-2.1,2.5-3.76,4.48-5,5.92q-3.54,4.05-6.57,4.05-3.29,0-3.28-4.84,0-2,2.46-7t7-12.92a2.85,2.85,0,0,0,.38-1.64,1.14,1.14,0,0,0-1.27-1.31c-.92,0-2.26.91-4,2.72s-5.13,5.59-10.14,11.35a69,69,0,0,0-4.7,6.31,61.48,61.48,0,0,1-3.76,5.2,3.09,3.09,0,0,1-2.27,1.31c-1.51,0-2.92-1.39-4.23-4.19a22.85,22.85,0,0,1-1.95-9.74,17.32,17.32,0,0,1,1.29-7,60.89,60.89,0,0,1,4-7.33,65,65,0,0,1,6.91-9.06,7.93,7.93,0,0,1,5.65-2.72,5.94,5.94,0,0,1,3.09.75,2.31,2.31,0,0,1,1.27,2.06c0,.92-.77,2.42-2.31,4.52a48.46,48.46,0,0,1-5.84,6.48,25.48,25.48,0,0,0-3.6,4.67c-1.13,1.86-1.7,3.2-1.7,4,0,1.18.44,1.76,1.33,1.76.71,0,2.52-1.52,5.42-4.58s6.1-6.37,9.57-10a104.22,104.22,0,0,1,9.66-9c3-2.37,5.48-3.56,7.54-3.56a3.89,3.89,0,0,1,3.12,1.47,5.42,5.42,0,0,1,1.24,3.63c0,1-.64,2.69-1.9,5.2a96.29,96.29,0,0,1-5.52,9.29Q531.33,154.89,525.58,162.73Z" transform="translate(-52.06 -46.98)"/><path class="cls-4" d="M596.92,162.73q8.7-8,15-13.9l9.81-9.32q3.57-3.4,6.28-5.76c1.81-1.57,3-2.36,3.48-2.36,1,0,1.89,1,2.77,3.11a14,14,0,0,1,1.33,5.07q0,1.25-4,5.86t-6,7.36a9.7,9.7,0,0,0-2,5.76,3.73,3.73,0,0,0,1.13,2.84,3.81,3.81,0,0,0,2.72,1.08,7.7,7.7,0,0,0,4.38-2q2.57-2,8.05-7v4.64q-5.49,5.37-10,9.26a52.85,52.85,0,0,1-7.8,5.82,11.66,11.66,0,0,1-5.52,1.93,4.15,4.15,0,0,1-3.28-1.53,5.64,5.64,0,0,1-1.33-3.83,14.24,14.24,0,0,1,.76-4.52,41.73,41.73,0,0,1,2.33-5.43q1.58-3.14,4.17-7.55t4.73-8.08q-6.43,5.43-11.42,10.46t-8.14,8.81l-5,5.92q-3.54,4.05-6.57,4.05-3.28,0-3.28-4.84,0-2,2.46-7t7-12.92a2.85,2.85,0,0,0,.38-1.64c0-.87-.42-1.31-1.26-1.31s-2.27.91-4,2.72S589,154,584,159.79a68.84,68.84,0,0,0-4.71,6.31,62.09,62.09,0,0,1-3.75,5.2,3.12,3.12,0,0,1-2.28,1.31c-1.51,0-2.92-1.39-4.23-4.19a22.85,22.85,0,0,1-2-9.74,17.32,17.32,0,0,1,1.29-7,60.89,60.89,0,0,1,4-7.33,65,65,0,0,1,6.91-9.06,7.93,7.93,0,0,1,5.65-2.72,6,6,0,0,1,3.1.75,2.3,2.3,0,0,1,1.26,2.06c0,.92-.77,2.42-2.31,4.52a48.46,48.46,0,0,1-5.84,6.48,25,25,0,0,0-3.59,4.67c-1.14,1.86-1.71,3.2-1.71,4,0,1.18.44,1.76,1.33,1.76.71,0,2.52-1.52,5.43-4.58s6.09-6.37,9.56-10a104.22,104.22,0,0,1,9.66-9q4.46-3.56,7.54-3.56a3.91,3.91,0,0,1,3.13,1.47,5.47,5.47,0,0,1,1.23,3.63q0,1.44-1.9,5.2a96.29,96.29,0,0,1-5.52,9.29Q602.66,154.89,596.92,162.73Z" transform="translate(-52.06 -46.98)"/><path class="cls-4" d="M649.5,156.12v1.64a9,9,0,0,0,1.83,6,6,6,0,0,0,4.8,2.16,15.39,15.39,0,0,0,6.41-1.51,34.48,34.48,0,0,0,6.59-4q3.29-2.48,8-6.67v4a80.09,80.09,0,0,1-13.38,13.64q-6.25,4.74-12.69,4.75a10.43,10.43,0,0,1-8.9-4.52q-3.28-4.51-3.28-12.37A25.33,25.33,0,0,1,642,146.8q3.09-5.6,10.1-11.81a39,39,0,0,1,9.53-6.41,20.79,20.79,0,0,1,8.46-2.16,7.22,7.22,0,0,1,4.7,1.41,5.1,5.1,0,0,1,1.74,4.22,13.93,13.93,0,0,1-3,8.21,34.74,34.74,0,0,1-9.06,8.11A91.33,91.33,0,0,1,649.5,156.12Zm.63-4.25a35.58,35.58,0,0,0,9.72-5.69,28.46,28.46,0,0,0,6-6.51q1.92-3.1,1.92-4.55t-1.32-1.5a8.85,8.85,0,0,0-3.69,1.5,30.15,30.15,0,0,0-5.18,3.93,28.45,28.45,0,0,0-4.7,5.69A18.77,18.77,0,0,0,650.13,151.87Z" transform="translate(-52.06 -46.98)"/><path class="cls-4" d="M676.52,158.81v-4.26a62.48,62.48,0,0,0,5.17-7.13,7,7,0,0,1-2.93-1.76,4.67,4.67,0,0,1-.92-3.14,13.67,13.67,0,0,1,1.9-6,34.29,34.29,0,0,1,4.67-6.74,14.64,14.64,0,0,1,5.05-4,3.66,3.66,0,0,1,1.7-.46,1.11,1.11,0,0,1,1.27,1.24c0,.74-.66,2.25-2,4.52q13-2.1,16.41-2.1a4.45,4.45,0,0,1,1.83.26,4.59,4.59,0,0,1,1.77,2.75,14.13,14.13,0,0,1,.69,4.32,5.15,5.15,0,0,1-1.16,3,58.22,58.22,0,0,1-4,4.67,39.39,39.39,0,0,0-5.62,8.12q-2.26,4.38-2.27,6.61,0,3.07,3.66,3.07,3.84,0,13.38-8.11V158c-3.49,3.8-6.37,6.78-8.65,9a46.55,46.55,0,0,1-6.31,5.2,9.75,9.75,0,0,1-5.18,1.93,5.23,5.23,0,0,1-4.41-2.52q-1.77-2.52-1.77-7.3a18,18,0,0,1,1.39-6.41,44.75,44.75,0,0,1,4.07-7.82,98.26,98.26,0,0,1,6-8.41c-1.18.27-2.51.54-4,.82l-4.67.89c-1.64.3-2.91.54-3.79.72A47.18,47.18,0,0,1,676.52,158.81Z" transform="translate(-52.06 -46.98)"/><path class="cls-4" d="M752.9,153.9v4.38q-6.75,6.87-11,10.67a47.73,47.73,0,0,1-8,5.89,14.65,14.65,0,0,1-7.23,2.09,8.93,8.93,0,0,1-6.37-2.85,19.28,19.28,0,0,1-4.55-7.45,29.12,29.12,0,0,1-1.64-9.79,16.15,16.15,0,0,1,1.9-7.91,45.07,45.07,0,0,1,7.32-9,72.8,72.8,0,0,1,12-10.11q5.52-3.55,8.68-3.56a5.16,5.16,0,0,1,3.85,1.64,5.7,5.7,0,0,1,1.58,4.12c0,1.39-.7,3.38-2.08,5.95a33.78,33.78,0,0,1-4.68,6.71q-2.58,2.83-4.1,2.84c-1.09,0-1.64-.61-1.64-1.83,0-.35.07-.67.09-1s0-.61,0-.92c0-.52-.18-.81-.54-.88a1.74,1.74,0,0,0-1.29.49c-4.21,3.06-7.1,5.2-8.65,6.45a19.17,19.17,0,0,0-3.7,3.76,6.75,6.75,0,0,0-1.35,4,8.53,8.53,0,0,0,2.4,6.28,8.4,8.4,0,0,0,6.24,2.42c2.66,0,5.84-1.06,9.57-3.17A104.15,104.15,0,0,0,752.9,153.9Z" transform="translate(-52.06 -46.98)"/><path class="cls-4" d="M762.75,156.12v1.64a9,9,0,0,0,1.83,6,6,6,0,0,0,4.8,2.16,15.31,15.31,0,0,0,6.4-1.51,34.55,34.55,0,0,0,6.6-4q3.29-2.48,8-6.67v4A80.09,80.09,0,0,1,777,171.4q-6.25,4.74-12.69,4.75a10.42,10.42,0,0,1-8.9-4.52q-3.28-4.51-3.29-12.37a25.23,25.23,0,0,1,3.1-12.46q3.09-5.6,10.1-11.81a39,39,0,0,1,9.53-6.41,20.75,20.75,0,0,1,8.46-2.16,7.24,7.24,0,0,1,4.7,1.41,5.1,5.1,0,0,1,1.74,4.22,13.93,13.93,0,0,1-3,8.21,34.74,34.74,0,0,1-9.06,8.11A91.33,91.33,0,0,1,762.75,156.12Zm.63-4.25a35.58,35.58,0,0,0,9.72-5.69,28.93,28.93,0,0,0,6-6.51q1.92-3.1,1.92-4.55t-1.32-1.5a8.92,8.92,0,0,0-3.7,1.5,30.49,30.49,0,0,0-5.17,3.93,28.49,28.49,0,0,0-4.71,5.69A18.92,18.92,0,0,0,763.38,151.87Z" transform="translate(-52.06 -46.98)"/></svg>